<?xml version="1.0" standalone="no"?>
<!DOCTYPE svg PUBLIC "-//W3C//DTD SVG 20010904//EN"
 "http://www.w3.org/TR/2001/REC-SVG-20010904/DTD/svg10.dtd">
<svg version="1.0" xmlns="http://www.w3.org/2000/svg"
 width="250.000000pt" height="272.000000pt" viewBox="0 0 250.000000 272.000000"
 preserveAspectRatio="xMidYMid meet">

<g transform="translate(0.000000,272.000000) scale(0.100000,-0.100000)"
fill="#000000" stroke="none">
<path d="M1333 2380 c-86 -18 -78 -7 -203 -295 -198 -457 -373 -918 -368 -964
4 -36 51 -44 200 -34 l123 8 98 230 c53 127 125 295 158 375 33 80 67 151 74
159 13 13 20 3 54 -70 52 -110 258 -606 306 -737 30 -81 36 -105 26 -112 -7
-4 -241 -10 -520 -14 -278 -4 -540 -10 -581 -14 l-75 -7 -37 -100 c-40 -109
-45 -141 -24 -170 21 -30 437 -40 1099 -27 539 11 612 16 623 47 8 19 -14 81
-116 340 -226 568 -569 1337 -614 1374 -19 16 -165 23 -223 11z"/>
</g>
</svg>
